<?xml version="1.0" encoding="UTF-8"?>
<svg version="1.1" xmlns="http://www.w3.org/2000/svg" width="492" height="450">
<path d="M0 0 C0.33 0.66 0.66 1.32 1 2 C1.6612085 1.99476318 2.32241699 1.98952637 3.00366211 1.98413086 C5.98159851 1.96342344 8.95951982 1.95035988 11.9375 1.9375 C12.97841797 1.92912109 14.01933594 1.92074219 15.09179688 1.91210938 C16.08115234 1.90888672 17.07050781 1.90566406 18.08984375 1.90234375 C19.46450806 1.89448853 19.46450806 1.89448853 20.86694336 1.88647461 C23 2 23 2 24 3 C25.34141308 3.2019831 26.69159323 3.34664722 28.04296875 3.46484375 C28.86990234 3.54283203 29.69683594 3.62082031 30.54882812 3.70117188 C32.28822113 3.85695763 34.02780282 4.01065278 35.76757812 4.16210938 C40.46197028 4.60867568 44.56775966 5.28653762 49 7 C49.94101562 7.33 50.88203125 7.66 51.8515625 8 C52.76679688 8.33 53.68203125 8.66 54.625 9 C55.54539062 9.33 56.46578125 9.66 57.4140625 10 C63.93051812 12.51995867 66.95744823 15.61259163 70 22 C71.31894561 27.47535972 70.38627891 32.01643719 67.875 37 C54.84432638 56.27578909 24.10082358 66.0215269 3.80273438 75.50585938 C-5.61282801 79.90545035 -14.95336066 84.41993768 -24.22827148 89.10888672 C-26.83740195 90.42118191 -29.46078104 91.70431022 -32.08203125 92.9921875 C-53.12950321 103.49513451 -77.24189394 116.67169439 -93.71875 133.78515625 C-95 135 -95 135 -97 135 C-97.33 135.99 -97.66 136.98 -98 138 C-98.825 138.639375 -99.65 139.27875 -100.5 139.9375 C-105.66082985 144.05623921 -109.24068742 149.63824662 -113 155 C-113.57234375 155.80566406 -114.1446875 156.61132812 -114.734375 157.44140625 C-122.56852361 169.37434911 -125.56519364 182.91325724 -124 197 C-123.03890681 201.51274721 -121.7061935 205.71674341 -120 210 C-119.566875 211.10408203 -119.566875 211.10408203 -119.125 212.23046875 C-113.51389561 224.78030491 -102.98030908 233.2616988 -91.6171875 240.3125 C-85.01228219 244.57118522 -79.56000103 249.31999692 -77 257 C-75.87931123 268.41501562 -78.32758159 275.76413081 -85.5 284.5625 C-99.10351861 298.98121073 -119.29846709 307.29368568 -138.98461914 308.1262207 C-165.89278788 308.73308497 -191.10295019 306.53890178 -214.50195312 292.23828125 C-215.48905273 291.64080078 -215.48905273 291.64080078 -216.49609375 291.03125 C-217.09607178 290.66580078 -217.6960498 290.30035156 -218.31420898 289.92382812 C-220.15824749 288.84802908 -220.15824749 288.84802908 -223 288 C-224.35545871 286.68916544 -225.68634369 285.35272416 -227 284 C-228.52693053 282.77309792 -230.06960592 281.56561111 -231.625 280.375 C-238.77800536 274.71396765 -245.57605115 268.36814969 -251 261 C-251 260.34 -251 259.68 -251 259 C-251.66 259 -252.32 259 -253 259 C-257.08612966 251.71275495 -261.0514016 244.36237223 -265 237 C-265.66 237 -266.32 237 -267 237 C-267.94616328 233.57015811 -268 230.55824425 -268 227 C-268.66 226.67 -269.32 226.34 -270 226 C-270.67016602 224.02563477 -270.67016602 224.02563477 -271.25390625 221.44140625 C-271.57584961 220.02504883 -271.57584961 220.02504883 -271.90429688 218.58007812 C-272.12150391 217.58427734 -272.33871094 216.58847656 -272.5625 215.5625 C-272.78357422 214.60150391 -273.00464844 213.64050781 -273.23242188 212.65039062 C-274.47241992 207.09474984 -275.34927443 201.65477552 -275.76928711 195.97631836 C-275.89490609 193.92644858 -275.89490609 193.92644858 -277 192 C-276.22560093 144.76165698 -258.89292513 107.22023318 -225.359375 74.20703125 C-218.64472738 67.92594532 -211.31239433 62.4109028 -203.9375 56.9375 C-203.28185059 56.44781738 -202.62620117 55.95813477 -201.95068359 55.45361328 C-197.23828824 52 -197.23828824 52 -195 52 C-195 51.34 -195 50.68 -195 50 C-194.35933594 49.68546875 -193.71867187 49.3709375 -193.05859375 49.046875 C-188.97442564 47.02609435 -184.92612529 45.00333289 -181 42.6875 C-178 41 -178 41 -176 41 C-175.505 40.01 -175.505 40.01 -175 39 C-173.17749023 37.99438477 -173.17749023 37.99438477 -170.80859375 36.94140625 C-169.94556641 36.55533203 -169.08253906 36.16925781 -168.19335938 35.77148438 C-167.28392578 35.37251953 -166.37449219 34.97355469 -165.4375 34.5625 C-164.55513672 34.16740234 -163.67277344 33.77230469 -162.76367188 33.36523438 C-157.5689696 31.05775761 -152.3457338 28.92924094 -147 27 C-146.36537842 26.76514893 -145.73075684 26.53029785 -145.0769043 26.28833008 C-134.82784727 22.5030134 -124.50106018 19.32658386 -113.94335938 16.52294922 C-111.41053727 15.84137824 -108.89480256 15.10302679 -106.375 14.375 C-100.52170548 12.77534187 -94.56942766 11.71989678 -88.6015625 10.6484375 C-86.63540558 10.29444395 -84.67039772 9.93217901 -82.71362305 9.52954102 C-64.58153421 5.99121437 -46.05805506 3.77704188 -27.625 2.6875 C-26.34520264 2.61152588 -25.06540527 2.53555176 -23.74682617 2.45727539 C-15.82596674 2.03950964 -7.93093928 1.91771505 0 2 C0 1.34 0 0.68 0 0 Z " fill="#525252" transform="translate(301,25)"/>
<path d="M0 0 C0.78084961 0.09023437 1.56169922 0.18046875 2.36621094 0.2734375 C13.3473254 1.58190294 23.12281326 3.56490653 33.1875 8.3125 C34.15345093 8.76508179 34.15345093 8.76508179 35.13891602 9.22680664 C41.5985553 12.28855069 47.87500782 15.6574664 54.125 19.125 C54.125 19.785 54.125 20.445 54.125 21.125 C54.81980469 21.34027344 55.51460938 21.55554688 56.23046875 21.77734375 C59.89410536 23.48308549 62.54463807 25.93186575 65.4375 28.6875 C66.01145508 29.22906738 66.58541016 29.77063477 67.17675781 30.32861328 C88.43789177 50.58957558 102.66113911 78.61416722 103.42578125 108.34765625 C103.44532361 110.96086735 103.44869992 113.57423983 103.4375 116.1875 C103.43534485 116.87163971 103.4331897 117.55577942 103.43096924 118.26065063 C103.37615619 129.1210798 102.80207754 139.56341198 100.125 150.125 C99.92632324 150.92405762 99.72764648 151.72311523 99.52294922 152.54638672 C96.62270601 163.86276641 92.66358421 174.17301482 87.05371094 184.41308594 C86.21499735 185.95910583 85.42105268 187.52920905 84.6328125 189.1015625 C79.09917211 199.94999874 71.24780417 209.06839865 63.03125 217.96484375 C61.41702368 219.79407972 60.05573086 221.57243066 58.75 223.625 C57.125 226.125 57.125 226.125 54.125 228.125 C52.42689171 229.4868772 50.74085285 230.86384959 49.0625 232.25 C48.06992187 233.06210937 47.07734375 233.87421875 46.0546875 234.7109375 C44.31980008 236.14048474 42.59255062 237.57952996 40.8828125 239.0390625 C15.58848842 260.19267873 -15.72438371 274.08765087 -46.875 284.125 C-47.79619629 284.42470703 -48.71739258 284.72441406 -49.66650391 285.03320312 C-108.94023266 304.1850808 -169.92571053 312.84786901 -231.875 317.125 C-231.5625 315.1875 -231.5625 315.1875 -230.875 313.125 C-229.885 312.795 -228.895 312.465 -227.875 312.125 C-227.875 311.465 -227.875 310.805 -227.875 310.125 C-226.885 309.795 -225.895 309.465 -224.875 309.125 C-223.84871244 308.15199752 -222.85001048 307.14938009 -221.875 306.125 C-220.79158086 305.25973125 -219.69014732 304.41666584 -218.57421875 303.59375 C-217.93355469 303.11824707 -217.29289063 302.64274414 -216.6328125 302.15283203 C-215.94960937 301.64864746 -215.26640625 301.14446289 -214.5625 300.625 C-208.51243406 296.12739861 -202.53815085 291.55022203 -196.63061523 286.8671875 C-192.92613264 283.934225 -189.17519018 281.08687474 -185.328125 278.34375 C-183.58991283 277.00184306 -183.58991283 277.00184306 -181.875 274.125 C-180.21551852 273.11312105 -178.54749086 272.1152283 -176.875 271.125 C-174.79806513 269.44472113 -172.76613216 267.74947851 -170.75 266 C-169.59445568 265.00829173 -168.43819452 264.01741817 -167.28125 263.02734375 C-166.70761719 262.5360498 -166.13398438 262.04475586 -165.54296875 261.53857422 C-163.14456696 259.50597083 -160.69762662 257.53537146 -158.25 255.5625 C-153.49554213 251.69387998 -148.95814895 247.6268783 -144.4453125 243.48046875 C-139.95925435 239.36938506 -135.39327982 235.35778397 -130.6875 231.5 C-126.87453407 228.28016211 -123.47190556 224.90731075 -120.375 221 C-117.96307784 218.22628951 -115.98879344 216.96133972 -112.875 215.125 C-111.50017293 213.49239286 -110.16852333 211.82274938 -108.875 210.125 C-106.39465965 207.58106118 -103.85557165 205.10604552 -101.3125 202.625 C-98.86603107 200.19736296 -98.86603107 200.19736296 -96.875 197.625 C-94.70561478 194.91326847 -92.33177583 192.58177583 -89.875 190.125 C-78.55392808 178.34651104 -69.48424596 164.95043616 -60.875 151.125 C-60.04355469 149.83529297 -60.04355469 149.83529297 -59.1953125 148.51953125 C-47.49514126 129.93868936 -39.06974749 104.76393782 -43.69921875 82.73828125 C-44.62747554 78.8278942 -45.7067613 74.97080769 -46.875 71.125 C-47.205 70.01125 -47.535 68.8975 -47.875 67.75 C-48.63211173 64.98512749 -48.63211173 64.98512749 -51 63.75 C-51.61875 63.54375 -52.2375 63.3375 -52.875 63.125 C-52.875 62.135 -52.875 61.145 -52.875 60.125 C-54.52133943 58.1082342 -56.18767723 56.10760426 -57.875 54.125 C-57.875 53.465 -57.875 52.805 -57.875 52.125 C-58.535 52.125 -59.195 52.125 -59.875 52.125 C-61.64258125 50.50892571 -63.24963067 48.87735131 -64.875 47.125 C-65.473125 46.50882813 -66.07125 45.89265625 -66.6875 45.2578125 C-70.55915843 41.1119116 -73.06287028 37.91142425 -73.875 32.125 C-73.71567185 27.66381187 -73.01356718 23.43598515 -71.875 19.125 C-71.215 19.125 -70.555 19.125 -69.875 19.125 C-69.61460937 18.52558594 -69.35421875 17.92617187 -69.0859375 17.30859375 C-64.41971612 8.89434295 -52.66487435 5.50350847 -44.0390625 2.9609375 C-29.6020165 -1.03928702 -14.84807472 -1.75977182 0 0 Z " fill="#91CB56" transform="translate(355.875,114.875)"/>
<path d="M0 0 C0.66 0.66 1.32 1.32 2 2 C3.46492106 2.57908817 4.94721251 3.11472556 6.4375 3.625 C15.71026684 7.25638701 22.88299991 12.96710488 28.5625 21.1171875 C30.03616556 23.25863171 30.03616556 23.25863171 33 25 C33.58984375 27.23828125 33.58984375 27.23828125 34 30 C34.24878906 30.98355469 34.49757813 31.96710938 34.75390625 32.98046875 C38.50099959 47.8421288 37.57826522 61.13042879 29.58203125 74.57421875 C22.89067527 84.83429793 13.09247104 91.89245611 1.26953125 95.37890625 C-12.40418471 97.97642218 -25.31848113 95.73289586 -37.359375 88.80078125 C-47.27308627 82.04009945 -54.55699602 72.48309149 -58 61 C-58 59.68 -58 58.36 -58 57 C-58.66 56.67 -59.32 56.34 -60 56 C-59.67 55.01 -59.34 54.02 -59 53 C-59.226875 51.741875 -59.45375 50.48375 -59.6875 49.1875 C-60.46771504 43.41200573 -58.66519386 38.50050156 -56.91015625 33.0390625 C-55.856552 30.04975676 -55.856552 30.04975676 -56 27 C-54.6875 25.02734375 -54.6875 25.02734375 -53 22.9375 C-50.63307454 20.2881878 -50.63307454 20.2881878 -50 17 C-49.34 16.608125 -48.68 16.21625 -48 15.8125 C-45.36709301 14.22178536 -43.58150741 12.71800394 -41.375 10.625 C-30.35000039 0.89584922 -14.34609096 -1.63680232 0 0 Z " fill="#90CA56" transform="translate(253,165)"/>
<path d="M0 0 C7.59847535 -0.24418541 15.18293951 1.08925538 22.69140625 2.12109375 C23.18640625 3.60609375 23.18640625 3.60609375 23.69140625 5.12109375 C22.65435547 5.1053833 21.61730469 5.08967285 20.54882812 5.07348633 C16.62003669 5.01828184 12.69127771 4.98442254 8.76220703 4.95629883 C7.07692663 4.94141459 5.39168349 4.92110054 3.70654297 4.89477539 C-14.94746287 4.61112772 -34.74203028 6.18346475 -49.82421875 18.55859375 C-53.96389306 22.91614565 -54.7202493 28.35531814 -55.30859375 34.12109375 C-56.29859375 33.79109375 -57.28859375 33.46109375 -58.30859375 33.12109375 C-58.16628567 31.70406862 -58.01958629 30.28748415 -57.87109375 28.87109375 C-57.78988281 28.0821875 -57.70867187 27.29328125 -57.625 26.48046875 C-57.33224382 24.29744736 -56.88794956 22.24377555 -56.30859375 20.12109375 C-55.64859375 20.12109375 -54.98859375 20.12109375 -54.30859375 20.12109375 C-54.04820312 19.52167969 -53.7878125 18.92226562 -53.51953125 18.3046875 C-48.85330987 9.8904367 -37.0984681 6.49960222 -28.47265625 3.95703125 C-18.98233584 1.32744814 -9.82241399 0.51521968 0 0 Z " fill="#81B350" transform="translate(340.30859375,113.87890625)"/>
<path d="M0 0 C4.24494982 0.31155595 6.81680534 3.21670039 9.75 6 C10.28149658 6.49910889 10.81299316 6.99821777 11.3605957 7.51245117 C28.6439845 23.92159313 39.52226012 43.88404047 45 67 C45.18981445 67.78995361 45.37962891 68.57990723 45.57519531 69.39379883 C47.3251671 77.64289424 47.22763819 85.80699512 47.125 94.1875 C47.11494179 95.63085311 47.105821 97.07421306 47.09765625 98.51757812 C47.07588691 102.01186394 47.04151675 105.50588637 47 109 C46.01 109.495 46.01 109.495 45 110 C44.98541748 109.39341553 44.97083496 108.78683105 44.95581055 108.16186523 C44.00214197 72.22911601 38.99174859 39.84070626 13 13 C9.1976209 9.40520031 5.14416893 6.19203755 1 3 C0.34 2.34 -0.32 1.68 -1 1 C-0.67 0.67 -0.34 0.34 0 0 Z " fill="#83B74A" transform="translate(412,138)"/>
<path d="M0 0 C2.39453125 0.23046875 2.39453125 0.23046875 5 1 C6.01171875 2.86328125 6.01171875 2.86328125 6.6875 5.3125 C9.66915259 13.68036372 15.86455431 21.59721756 23.625 26.0625 C25.06738605 26.743205 26.52569312 27.39151334 28 28 C28.66773438 28.30292969 29.33546875 28.60585937 30.0234375 28.91796875 C34.93889574 30.9871241 39.69926022 31.69995813 45 32 C45.72058594 32.05285156 46.44117188 32.10570312 47.18359375 32.16015625 C57.54523789 32.58496519 65.73328106 28.97526602 74.37109375 23.5234375 C76.67135696 22.19044693 78.40781846 21.45347857 81 21 C73.29477759 29.42758701 63.49839869 34.33116364 52.05859375 35.3515625 C38.5186508 35.83046723 25.98710628 32.80888408 15.484375 23.85546875 C8.00993177 16.59139892 3.52716777 9.79330939 0 0 Z " fill="#82B750" transform="translate(195,226)"/>
<path d="M0 0 C0.66 0.66 1.32 1.32 2 2 C3.46492106 2.57908817 4.94721251 3.11472556 6.4375 3.625 C15.71026684 7.25638701 22.88299991 12.96710488 28.5625 21.1171875 C30.03616556 23.25863171 30.03616556 23.25863171 33 25 C33 25.66 33 26.32 33 27 C32.01 27.33 31.02 27.66 30 28 C28.82750647 26.54634731 27.66216184 25.08692581 26.5 23.625 C25.8503125 22.81289062 25.200625 22.00078125 24.53125 21.1640625 C23 19 23 19 23 17 C22.41863281 16.73058594 21.83726562 16.46117187 21.23828125 16.18359375 C18.98843765 14.99388588 17.1713446 13.65038376 15.1875 12.0625 C6.52963848 5.47674263 -2.30335 4.87440423 -12.875 4.4375 C-13.84953125 4.39431641 -14.8240625 4.35113281 -15.828125 4.30664062 C-18.21862802 4.20117726 -20.60922444 4.09905825 -23 4 C-22.67 3.01 -22.34 2.02 -22 1 C-14.74778049 0.10149493 -7.29800671 -0.68130126 0 0 Z " fill="#7EB247" transform="translate(253,165)"/>
<path d="M0 0 C-1.49592163 1.37943593 -2.9969969 2.75328331 -4.5 4.125 C-5.75296875 5.27355469 -5.75296875 5.27355469 -7.03125 6.4453125 C-9.89273449 8.90769521 -12.83064046 11.16284528 -15.86279297 13.40673828 C-19.56262923 16.16492099 -23.17944986 19.02980251 -26.8125 21.875 C-33.4471607 27.05597602 -40.13276298 32.12940458 -47 37 C-47.33 35.68 -47.66 34.36 -48 33 C-47.00742188 32.26136719 -46.01484375 31.52273438 -44.9921875 30.76171875 C-37.5077008 25.17802463 -30.07439474 19.54346102 -22.75634766 13.74291992 C-19.05175765 10.80953566 -15.3004689 7.96207348 -11.453125 5.21875 C-9.71491283 3.87684306 -9.71491283 3.87684306 -8 1 C-2.54545455 -1.27272727 -2.54545455 -1.27272727 0 0 Z " fill="#81B948" transform="translate(182,388)"/>
<path d="M0 0 C0.66 0.33 1.32 0.66 2 1 C-6.54897014 11.21706187 -16.0925725 20.9297015 -26.29296875 29.5078125 C-28.83381489 31.72887251 -31.1416995 34.16436574 -33.45703125 36.6171875 C-35 38 -35 38 -38 39 C-36.11825498 31.64408765 -31.18882788 28.05513595 -25.55078125 23.4296875 C-23.75318225 21.88518193 -23.75318225 21.88518193 -22 19 C-21.21625 18.54625 -20.4325 18.0925 -19.625 17.625 C-16.63197746 15.77217652 -15.12470063 13.78866958 -13 11 C-11.35353315 9.31337542 -9.68816933 7.64488294 -8 6 C-7.484375 5.443125 -6.96875 4.88625 -6.4375 4.3125 C-4.76473617 2.78519389 -3.04395789 1.95384702 -1 1 C-0.67 0.67 -0.34 0.34 0 0 Z " fill="#75B335" transform="translate(260,314)"/>
<path d="M0 0 C-1 2 -1 2 -2.85986328 2.77441406 C-3.67181152 3.01901367 -4.48375977 3.26361328 -5.3203125 3.515625 C-6.2373999 3.79462646 -7.1544873 4.07362793 -8.09936523 4.36108398 C-9.09782471 4.65442627 -10.09628418 4.94776855 -11.125 5.25 C-12.14730713 5.55429932 -13.16961426 5.85859863 -14.22290039 6.17211914 C-21.6038331 8.34629929 -29.00733323 10.438145 -36.4375 12.4375 C-37.84636475 12.82566895 -37.84636475 12.82566895 -39.28369141 13.22167969 C-44.69339886 14.6415453 -49.40754289 15.26817631 -55 15 C-55 14.34 -55 13.68 -55 13 C-54.06486572 12.80422363 -54.06486572 12.80422363 -53.11083984 12.60449219 C-40.03533286 9.85302195 -27.17840231 6.9318497 -14.44140625 2.86328125 C-13.28511719 2.49589844 -12.12882812 2.12851562 -10.9375 1.75 C-9.91527344 1.41484375 -8.89304687 1.0796875 -7.83984375 0.734375 C-5.0890253 0.02302167 -2.82500788 -0.14513802 0 0 Z " fill="#82B74C" transform="translate(307,398)"/>
<path d="M0 0 C1.32 0.33 2.64 0.66 4 1 C3.66226563 1.54527344 3.32453125 2.09054688 2.9765625 2.65234375 C-3.66648058 13.88407843 -3.24686288 24.28656153 -3 37 C-3.99 37 -4.98 37 -6 37 C-6 36.34 -6 35.68 -6 35 C-6.66 34.67 -7.32 34.34 -8 34 C-7.67 33.01 -7.34 32.02 -7 31 C-7.226875 29.741875 -7.45375 28.48375 -7.6875 27.1875 C-8.46771504 21.41200573 -6.66519386 16.50050156 -4.91015625 11.0390625 C-3.856552 8.04975676 -3.856552 8.04975676 -4 5 C-2 2.3125 -2 2.3125 0 0 Z " fill="#78A848" transform="translate(201,187)"/>
<path d="M0 0 C0.66 0 1.32 0 2 0 C5.89903602 14.41250814 3.95189757 27.61863497 -3.40234375 40.66015625 C-5.05420808 43.07939031 -6.86439377 45.00276998 -9 47 C-9.66 46.67 -10.32 46.34 -11 46 C-10.45730469 45.23816406 -9.91460937 44.47632813 -9.35546875 43.69140625 C-8.28232422 42.14259766 -8.28232422 42.14259766 -7.1875 40.5625 C-6.47980469 39.55316406 -5.77210938 38.54382813 -5.04296875 37.50390625 C0.053722 29.28378261 0.40127942 21.43698041 0.1875 11.9375 C0.17396484 10.78572266 0.16042969 9.63394531 0.14648438 8.44726562 C0.11142725 5.63101028 0.06228856 2.81576235 0 0 Z " fill="#7DB449" transform="translate(286,199)"/>
<path d="M0 0 C0.99 0.99 1.98 1.98 3 3 C2.03578125 3.50789063 1.0715625 4.01578125 0.078125 4.5390625 C-1.19833492 5.23360687 -2.47435352 5.92896274 -3.75 6.625 C-4.70132812 7.12193359 -4.70132812 7.12193359 -5.671875 7.62890625 C-10.95000848 10.54287578 -14.05282463 13.82785609 -15.828125 19.7734375 C-15.96734375 20.63195312 -16.1065625 21.49046875 -16.25 22.375 C-16.39953125 23.24898437 -16.5490625 24.12296875 -16.703125 25.0234375 C-16.80109375 25.67570312 -16.8990625 26.32796875 -17 27 C-17.99 26.67 -18.98 26.34 -20 26 C-19.85769192 24.58297487 -19.71099254 23.1663904 -19.5625 21.75 C-19.48128906 20.96109375 -19.40007812 20.1721875 -19.31640625 19.359375 C-19.02365007 17.17635361 -18.57935581 15.1226818 -18 13 C-17.34 13 -16.68 13 -16 13 C-15.74734375 12.40316406 -15.4946875 11.80632812 -15.234375 11.19140625 C-12.17285079 5.75623194 -5.50755311 2.4783989 0 0 Z " fill="#7BA546" transform="translate(302,121)"/>
<path d="M0 0 C-0.33 0.66 -0.66 1.32 -1 2 C-3.75634766 2.76196289 -3.75634766 2.76196289 -7.4140625 3.47265625 C-8.06192719 3.60063095 -8.70979187 3.72860565 -9.37728882 3.86045837 C-11.45837125 4.26923629 -13.54159227 4.66576342 -15.625 5.0625 C-17.00665796 5.33323246 -18.38817051 5.60470817 -19.76953125 5.87695312 C-36.53118526 9.151335 -36.53118526 9.151335 -44.4375 9.0625 C-45.48808594 9.05347656 -46.53867188 9.04445313 -47.62109375 9.03515625 C-48.40613281 9.02355469 -49.19117188 9.01195312 -50 9 C-46.76076719 7.13032406 -44.01266301 6.60997783 -40.3125 6.1875 C-32.05027859 5.11550292 -23.94097421 3.41822556 -15.79614258 1.67651367 C-10.42122649 0.55717537 -5.49258524 -0.2968965 0 0 Z " fill="#82B74A" transform="translate(246,414)"/>
<path d="M0 0 C-1 3 -1 3 -3.29394531 4.27099609 C-4.29522461 4.68430176 -5.29650391 5.09760742 -6.328125 5.5234375 C-7.43929687 5.9875 -8.55046875 6.4515625 -9.6953125 6.9296875 C-10.86835938 7.40664063 -12.04140625 7.88359375 -13.25 8.375 C-14.93996094 9.07882812 -14.93996094 9.07882812 -16.6640625 9.796875 C-20.10071766 11.2202951 -23.54823352 12.61366658 -27 14 C-28.18271484 14.4837207 -29.36542969 14.96744141 -30.58398438 15.46582031 C-31.72673828 15.92311523 -32.86949219 16.38041016 -34.046875 16.8515625 C-35.07135742 17.26486816 -36.09583984 17.67817383 -37.15136719 18.10400391 C-39.95502905 18.98585504 -42.08481958 19.18395471 -45 19 C-42.75054012 16.44509656 -40.86699497 15.3771674 -37.6484375 14.31640625 C-36.79636719 14.02830078 -35.94429688 13.74019531 -35.06640625 13.44335938 C-34.17824219 13.15267578 -33.29007812 12.86199219 -32.375 12.5625 C-26.38278561 10.57551386 -20.59475349 8.48305419 -14.89697266 5.74975586 C-13 5 -13 5 -10 5 C-10 4.34 -10 3.68 -10 3 C-8.70990357 2.49596232 -7.41786211 1.99690074 -6.125 1.5 C-5.40570313 1.2215625 -4.68640625 0.943125 -3.9453125 0.65625 C-2 0 -2 0 0 0 Z " fill="#82BA4B" transform="translate(353,379)"/>
<path d="M0 0 C0.66 0 1.32 0 2 0 C2.06058594 1.22074219 2.12117188 2.44148437 2.18359375 3.69921875 C2.66135494 13.14581681 3.20462555 22.57396661 4 32 C3.67 30.68 3.34 29.36 3 28 C2.01 28 1.02 28 0 28 C-0.06058594 27.37351563 -0.12117188 26.74703125 -0.18359375 26.1015625 C-0.30927734 24.87566406 -0.30927734 24.87566406 -0.4375 23.625 C-0.51871094 22.81289062 -0.59992187 22.00078125 -0.68359375 21.1640625 C-0.89090114 18.95727195 -0.89090114 18.95727195 -2 17 C-1.93649827 14.29540338 -1.81238204 11.63345906 -1.625 8.9375 C-1.58117187 8.19177734 -1.53734375 7.44605469 -1.4921875 6.67773438 C-1.1293504 1.1293504 -1.1293504 1.1293504 0 0 Z " fill="#3D3D3D" transform="translate(26,200)"/>
<path d="M0 0 C0 0.66 0 1.32 0 2 C-2.31 2.33 -4.62 2.66 -7 3 C-7 3.66 -7 4.32 -7 5 C-9.8314037 5.81977607 -12.66482902 6.63094274 -15.5 7.4375 C-16.68722656 7.78264648 -16.68722656 7.78264648 -17.8984375 8.13476562 C-22.9401646 9.56049993 -27.78508177 10.47970426 -33 11 C-33.33 10.34 -33.66 9.68 -34 9 C-32.98421875 8.68546875 -31.9684375 8.3709375 -30.921875 8.046875 C-29.53121706 7.6146893 -28.14059459 7.18238947 -26.75 6.75 C-26.02506348 6.52546143 -25.30012695 6.30092285 -24.55322266 6.06958008 C-19.20545607 4.40377611 -13.91500508 2.60816087 -8.6484375 0.69921875 C-5.67556229 -0.08565538 -3.06164773 -0.12120893 0 0 Z " fill="#535252" transform="translate(197,40)"/>
<path d="M0 0 C2.39453125 0.23046875 2.39453125 0.23046875 5 1 C6.01171875 2.86328125 6.01171875 2.86328125 6.6875 5.3125 C9.39040575 13.0526392 15.18502709 20.45668473 22 25 C22 25.66 22 26.32 22 27 C14.15871628 24.31817206 8.03085411 17.12930424 4 10 C2.52805314 6.71345636 1.22005057 3.3875147 0 0 Z " fill="#7DB345" transform="translate(195,226)"/>
<path d="M0 0 C0 0.66 0 1.32 0 2 C-0.75023437 2.32871094 -1.50046875 2.65742188 -2.2734375 2.99609375 C-9.23456421 6.23117657 -14.49692388 9.82452524 -19.94140625 15.2421875 C-22 17 -22 17 -25 17 C-25.33 16.01 -25.66 15.02 -26 14 C-25.34 13.649375 -24.68 13.29875 -24 12.9375 C-21.44477957 11.28725347 -19.5654285 9.69373803 -17.375 7.625 C-13.52300334 4.16996483 -5.22374679 -2.6118734 0 0 Z " fill="#7DB142" transform="translate(229,168)"/>
<path d="M0 0 C0.33 0 0.66 0 1 0 C0.51657006 6.39132056 -0.63155352 11.51713922 -3.1875 17.375 C-3.49631104 18.10452881 -3.80512207 18.83405762 -4.12329102 19.58569336 C-6.71381491 25.59536437 -9.67524289 31.36130937 -13 37 C-13.66 36.67 -14.32 36.34 -15 36 C-13.52251501 32.19371725 -11.8620051 28.50701085 -10.125 24.8125 C-6.35335172 16.6818908 -3.11143521 8.40087508 0 0 Z " fill="#80B34B" transform="translate(452,270)"/>
<path d="M0 0 C-0.33 0.66 -0.66 1.32 -1 2 C-3.75218038 2.39396169 -6.42301686 2.6611938 -9.19140625 2.8515625 C-10.01124496 2.91532074 -10.83108368 2.97907898 -11.67576599 3.04476929 C-14.30408752 3.24710305 -16.93317629 3.43618135 -19.5625 3.625 C-21.3405608 3.75954721 -23.11855688 3.8949526 -24.89648438 4.03125 C-29.26363319 4.3641431 -33.6315149 4.68514854 -38 5 C-38.33 4.34 -38.66 3.68 -39 3 C-31.95682081 1.57755401 -24.97784648 0.76213458 -17.8125 0.375 C-17.07725098 0.33511963 -16.34200195 0.29523926 -15.58447266 0.25415039 C-10.38560814 0.00319071 -5.20461965 -0.03088795 0 0 Z " fill="#7EB746" transform="translate(173,426)"/>
<path d="M0 0 C17.31418642 6.82898103 17.31418642 6.82898103 23 11 C23.80078125 13.18359375 23.80078125 13.18359375 24 15 C23.44280273 14.71914551 22.88560547 14.43829102 22.31152344 14.14892578 C19.89118517 12.94591439 17.45644615 11.77806585 15.015625 10.6171875 C14.08105469 10.17246094 13.14648438 9.72773438 12.18359375 9.26953125 C11.21550781 8.80933594 10.24742187 8.34914062 9.25 7.875 C8.26644531 7.40707031 7.28289062 6.93914062 6.26953125 6.45703125 C3.84652066 5.30433689 1.42333798 4.15200587 -1 3 C-0.67 2.01 -0.34 1.02 0 0 Z " fill="#7FB64B" transform="translate(385,122)"/>
<path d="M0 0 C0.66 0.99 1.32 1.98 2 3 C6.18590998 8.10228486 10.72008161 12.7864914 15.49609375 17.3359375 C17 19 17 19 17 21 C16.01 21.33 15.02 21.66 14 22 C13.67 20.68 13.34 19.36 13 18 C12.34 18 11.68 18 11 18 C9.23238937 16.38389885 7.62795129 14.74994248 6 13 C5.36707031 12.360625 4.73414063 11.72125 4.08203125 11.0625 C3.43621094 10.381875 2.79039062 9.70125 2.125 9 C1.50882812 8.360625 0.89265625 7.72125 0.2578125 7.0625 C-1 5 -1 5 -0.6953125 2.25 C-0.46585937 1.5075 -0.23640625 0.765 0 0 Z " fill="#80B64A" transform="translate(285,149)"/>
<path d="M0 0 C0 4.03330767 -1.44378947 4.86753739 -4.1875 7.75 C-7.82672703 11.6647521 -11.01597201 15.5720875 -14 20 C-15.23521341 16.29435976 -14.67128956 15.43542853 -13 12 C-9.48385201 6.54453327 -6.18270371 2.26196477 0 0 Z " fill="#484748" transform="translate(68,110)"/>
<path d="M0 0 C0.66 0 1.32 0 2 0 C1.51316609 7.3025087 0.13905602 14.33221203 -3 21 C-3.99 21.33 -4.98 21.66 -6 22 C-5.50253785 15.65735753 -4.61508479 4.61508479 0 0 Z " fill="#7FB644" transform="translate(313,224)"/>
<path d="M0 0 C0.99 0.33 1.98 0.66 3 1 C1.49701757 4.7532578 -0.65045084 6.60207495 -3.8125 9.0625 C-4.66457031 9.73410156 -5.51664063 10.40570313 -6.39453125 11.09765625 C-8.85715016 12.89570034 -11.35963858 14.47835545 -14 16 C-13.73965207 12.41227847 -13.18104639 11.17755914 -10.56640625 8.61328125 C-9.07947266 7.47439453 -9.07947266 7.47439453 -7.5625 6.3125 C-6.57378906 5.54550781 -5.58507812 4.77851563 -4.56640625 3.98828125 C-3.71949219 3.33214844 -2.87257812 2.67601562 -2 2 C-1.34 1.34 -0.68 0.68 0 0 Z " fill="#7DB948" transform="translate(205,364)"/>
<path d="M0 0 C0.33 0 0.66 0 1 0 C2.59993556 8.39966167 2.98352006 17.65662197 1 26 C-2.43339124 22.42166349 -2.37573268 19.52723231 -2.3125 14.6875 C-2.30863281 13.41261719 -2.30476563 12.13773438 -2.30078125 10.82421875 C-1.99034634 6.87726062 -1.21594084 3.74471023 0 0 Z " fill="#7AB540" transform="translate(315,197)"/>
<path d="M0 0 C0.99 0.33 1.98 0.66 3 1 C2 4 2 4 -0.7421875 5.40625 C-1.81726563 5.9321875 -2.89234375 6.458125 -4 7 C-5.75882612 8.44046293 -7.46889177 9.94253144 -9.125 11.5 C-15.52117619 17.47773475 -15.52117619 17.47773475 -18 19 C-18.99 18.67 -19.98 18.34 -21 18 C-19.7315625 16.93072266 -19.7315625 16.93072266 -18.4375 15.83984375 C-17.61838135 15.14810059 -17.61838135 15.14810059 -16.78271484 14.44238281 C-15.59131501 13.43665991 -14.39892625 12.43210738 -13.20556641 11.42871094 C-9.22827506 8.07473454 -5.35516052 4.63504364 -1.5859375 1.046875 C-1.06257813 0.70140625 -0.53921875 0.3559375 0 0 Z " fill="#84B84F" transform="translate(411,338)"/>
<path d="M0 0 C12.54 0.66 25.08 1.32 38 2 C38 2.33 38 2.66 38 3 C33.83378191 3.19849851 29.66702543 3.38180993 25.5 3.5625 C24.32695312 3.61857422 23.15390625 3.67464844 21.9453125 3.73242188 C15.81240536 3.99083088 10.0597272 4.01245442 4 3 C4 2.34 4 1.68 4 1 C2.68 0.67 1.36 0.34 0 0 Z " fill="#3E3F3E" transform="translate(124,329)"/>
<path d="M0 0 C-0.97582031 0.83144531 -1.95164062 1.66289063 -2.95703125 2.51953125 C-4.24224382 3.61712155 -5.52739697 4.71478145 -6.8125 5.8125 C-7.77639648 6.63331055 -7.77639648 6.63331055 -8.75976562 7.47070312 C-9.38173828 8.00244141 -10.00371094 8.53417969 -10.64453125 9.08203125 C-11.21534424 9.56905518 -11.78615723 10.0560791 -12.37426758 10.55786133 C-13.98043159 11.98264145 -15.49814109 13.46631362 -17 15 C-17.66 14.67 -18.32 14.34 -19 14 C-15.657475 8.45283084 -7.85179203 -3.92589601 0 0 Z " fill="#4D4D4D" transform="translate(94,89)"/>
<path d="M0 0 C2.31 0 4.62 0 7 0 C7.33 0.99 7.66 1.98 8 3 C12.29 3.66 16.58 4.32 21 5 C21 5.33 21 5.66 21 6 C10.65136625 5.49122826 0.31822159 4.96797688 -10 4 C-10 3.67 -10 3.34 -10 3 C-6.7 3 -3.4 3 0 3 C0 2.01 0 1.02 0 0 Z " fill="#424243" transform="translate(317,27)"/>
<path d="M0 0 C2.06326977 0.08760589 4.1256716 0.19579273 6.1875 0.3125 C7.91033203 0.39951172 7.91033203 0.39951172 9.66796875 0.48828125 C13.18767274 1.02882196 15.21760009 1.79399178 18 4 C18 4.99 18 5.98 18 7 C11.68878497 5.9007105 5.93661416 4.41862058 0 2 C0 1.34 0 0.68 0 0 Z " fill="#78AA40" transform="translate(365,117)"/>
<path d="M0 0 C0.99 0.66 1.98 1.32 3 2 C1.23519919 3.8187336 -0.53630765 5.62994991 -2.3125 7.4375 C-3.06176758 8.2119043 -3.06176758 8.2119043 -3.82617188 9.00195312 C-6.19869635 11.40590176 -7.74970379 12.91656793 -11 14 C-9.29184052 7.32264932 -5.50914377 3.87680487 0 0 Z " fill="#76A843" transform="translate(233,339)"/>
<path d="M0 0 C-1.54801178 1.51494745 -3.11402552 3.01151611 -4.6875 4.5 C-5.55761719 5.3353125 -6.42773438 6.170625 -7.32421875 7.03125 C-10.2493575 9.18346888 -11.46633206 9.45842179 -15 9 C-6.01794616 -3.00897308 -6.01794616 -3.00897308 0 0 Z " fill="#83BF52" transform="translate(182,388)"/>
<path d="M0 0 C0.33 0.66 0.66 1.32 1 2 C3.54941373 2.31241371 6.00361513 2.51303421 8.5625 2.625 C9.62887695 2.68300781 9.62887695 2.68300781 10.71679688 2.7421875 C12.47742425 2.83671783 14.23867728 2.91945817 16 3 C16 3.66 16 4.32 16 5 C13.56305726 5.24878997 11.12761611 5.47463404 8.6875 5.6875 C7.65206055 5.79674805 7.65206055 5.79674805 6.59570312 5.90820312 C1.44325817 6.33135078 1.44325817 6.33135078 -0.98046875 4.51953125 C-1.31691406 4.01808594 -1.65335937 3.51664063 -2 3 C-1.34 2.01 -0.68 1.02 0 0 Z " fill="#5C5C55" transform="translate(301,25)"/>
<path d="M0 0 C2.63090059 0.37175769 3.80566004 0.80432284 5.703125 2.71484375 C9.79809922 8.59878398 10.80234979 12.88286016 10 20 C9.67 20 9.34 20 9 20 C8.98582031 19.40832031 8.97164063 18.81664063 8.95703125 18.20703125 C8.69588194 13.88042247 8.51083073 11.62128062 5.6875 8.1875 C4.800625 7.465625 3.91375 6.74375 3 6 C1.66666667 4.66666667 0.33333333 3.33333333 -1 2 C-0.67 1.34 -0.34 0.68 0 0 Z " fill="#64645C" transform="translate(361,37)"/>
<path d="M0 0 C0.99 0 1.98 0 3 0 C1.40956621 5.08938811 -1.7446951 8.87456643 -5 13 C-5.99 12.34 -6.98 11.68 -8 11 C-6.74131097 9.15830774 -5.46766474 7.32682969 -4.1875 5.5 C-3.47980469 4.4790625 -2.77210938 3.458125 -2.04296875 2.40625 C-1.36878906 1.6121875 -0.69460938 0.818125 0 0 Z " fill="#90C248" transform="translate(293,270)"/>
<path d="M0 0 C0.99 0.66 1.98 1.32 3 2 C1.57084149 3.34227046 0.13137328 4.67357096 -1.3125 6 C-2.11300781 6.7425 -2.91351563 7.485 -3.73828125 8.25 C-6 10 -6 10 -9 10 C-6.69028106 5.21558219 -4.70266609 2.59884179 0 0 Z " fill="#7CAC41" transform="translate(243,330)"/>
<path d="M0 0 C0.33 0.66 0.66 1.32 1 2 C3.64 2 6.28 2 9 2 C9 2.33 9 2.66 9 3 C-0.405 3.99 -0.405 3.99 -10 5 C-9.34 3.68 -8.68 2.36 -8 1 C-5.32209537 0.16113831 -2.8262059 0.18233586 0 0 Z " fill="#4B4B4B" transform="translate(256,29)"/>
<path d="M0 0 C-1.33623377 4.00870131 -3.95293911 5.36340635 -7.3125 7.625 C-7.89451172 8.03234375 -8.47652344 8.4396875 -9.07617188 8.859375 C-11.969039 10.83818785 -14.48973382 12.49729521 -18 13 C-6.21875 0 -6.21875 0 0 0 Z " fill="#646364" transform="translate(106,77)"/>
<path d="M0 0 C0.33 0.99 0.66 1.98 1 3 C-1.24055138 4.53663484 -3.49062273 6.05400704 -5.75 7.5625 C-6.38421875 8.00013672 -7.0184375 8.43777344 -7.671875 8.88867188 C-12.50498766 12.08557452 -12.50498766 12.08557452 -15.21582031 11.61694336 C-15.80459961 11.41335205 -16.39337891 11.20976074 -17 11 C-16.35933594 10.62488281 -15.71867187 10.24976563 -15.05859375 9.86328125 C-9.85544598 6.78481677 -4.86173705 3.59345782 0 0 Z " fill="#7FB74B" transform="translate(388,357)"/>
<path d="M0 0 C0.99 0 1.98 0 3 0 C1.63629701 2.99220268 0.05091917 5.29026529 -2.125 7.75 C-2.93324219 8.67039062 -2.93324219 8.67039062 -3.7578125 9.609375 C-4.16773438 10.06828125 -4.57765625 10.5271875 -5 11 C-5.99 10.67 -6.98 10.34 -8 10 C-6.85500893 8.52018126 -5.708983 7.04116318 -4.5625 5.5625 C-3.60537109 4.32693359 -3.60537109 4.32693359 -2.62890625 3.06640625 C-1 1 -1 1 0 0 Z " fill="#7FAE4C" transform="translate(283,285)"/>
<path d="M0 0 C2.47184777 0.38311016 3.69400541 0.65413076 5.37890625 2.55859375 C5.76949219 3.17863281 6.16007812 3.79867187 6.5625 4.4375 C8.30143299 7.16848 9.17896019 8.1193068 12 10 C12 10.66 12 11.32 12 12 C11.01 12.33 10.02 12.66 9 13 C7.82750647 11.54634731 6.66216184 10.08692581 5.5 8.625 C4.52546875 7.40683594 4.52546875 7.40683594 3.53125 6.1640625 C2 4 2 4 2 2 C1.34 2 0.68 2 0 2 C0 1.34 0 0.68 0 0 Z " fill="#7CB048" transform="translate(274,180)"/>
<path d="M0 0 C1.32 0.33 2.64 0.66 4 1 C3.690625 1.680625 3.38125 2.36125 3.0625 3.0625 C1.86629351 6.36965912 1.40994603 9.51545878 1 13 C0.01 12.67 -0.98 12.34 -2 12 C-1.85831863 10.56208484 -1.71148957 9.1246763 -1.5625 7.6875 C-1.48128906 6.88699219 -1.40007812 6.08648437 -1.31640625 5.26171875 C-1 3 -1 3 0 0 Z " fill="#7FB545" transform="translate(284,135)"/>
<path d="M0 0 C0 0.66 0 1.32 0 2 C-2.40912355 3.36936501 -4.82574185 4.72041993 -7.25 6.0625 C-7.93191406 6.45244141 -8.61382812 6.84238281 -9.31640625 7.24414062 C-9.98027344 7.60830078 -10.64414063 7.97246094 -11.328125 8.34765625 C-11.9355957 8.68804932 -12.54306641 9.02844238 -13.16894531 9.37915039 C-15.46093824 10.15628879 -16.74457325 9.76849965 -19 9 C-12.25 5 -12.25 5 -10 5 C-9.67 4.34 -9.34 3.68 -9 3 C-2.65384615 0 -2.65384615 0 0 0 Z " fill="#626263" transform="translate(135,61)"/>
<path d="M0 0 C0.33 0.99 0.66 1.98 1 3 C-0.31880399 5.17022147 -1.63577558 7.07219295 -3.1875 9.0625 C-3.58775391 9.60455078 -3.98800781 10.14660156 -4.40039062 10.70507812 C-6.63810867 13.6391363 -8.50287836 15.70566303 -12 17 C-8.22102308 11.17407725 -4.10475847 5.59920937 0 0 Z " fill="#81B64B" transform="translate(434,310)"/>
<path d="M0 0 C0.66 0.33 1.32 0.66 2 1 C-0.31 5.29 -2.62 9.58 -5 14 C-5.98646998 10.05412007 -6.10918206 9.37955766 -4.75 5.875 C-4.49734375 5.19179688 -4.2446875 4.50859375 -3.984375 3.8046875 C-3 2 -3 2 0 0 Z " fill="#7AB744" transform="translate(305,251)"/>
<path d="M0 0 C0.99 0.33 1.98 0.66 3 1 C0.94709753 2.51487972 -1.11562554 4.01146884 -3.1875 5.5 C-3.76564453 5.92925781 -4.34378906 6.35851562 -4.93945312 6.80078125 C-8.40660479 9.26892311 -10.7081798 10.58194172 -15 10 C-11.23970302 6.72490263 -7.26303119 4.38900509 -2.890625 2.05078125 C-1.04889219 1.14040968 -1.04889219 1.14040968 0 0 Z " fill="#7BAE44" transform="translate(273,247)"/>
<path d="M0 0 C0 3 0 3 -2.1875 5.3125 C-3.115625 6.199375 -4.04375 7.08625 -5 8 C-5.84385172 9.05416553 -6.6773296 10.11672266 -7.5 11.1875 C-9.98299616 13.98087068 -11.46519923 14.99005692 -15 16 C-10.30233025 10.33870569 -5.25276628 5.14771096 0 0 Z " fill="#6B6B6A" transform="translate(78,97)"/>
<path d="M0 0 C1.32 0 2.64 0 4 0 C4 0.66 4 1.32 4 2 C10.93 2.495 10.93 2.495 18 3 C18.33 3.99 18.66 4.98 19 6 C11.96871122 5.56615452 5.670985 4.25678003 -1 2 C-0.67 1.34 -0.34 0.68 0 0 Z " fill="#696968" transform="translate(109,325)"/>
<path d="M0 0 C2.6895528 2.6895528 3.69331154 5.45327417 5 9 C4.67 9.99 4.34 10.98 4 12 C4 11.34 4 10.68 4 10 C2.35 10 0.7 10 -1 10 C-1.144375 9.38125 -1.28875 8.7625 -1.4375 8.125 C-1.93152225 5.96741678 -1.93152225 5.96741678 -3 4 C-2.34 4 -1.68 4 -1 4 C-0.67 2.68 -0.34 1.36 0 0 Z " fill="#353838" transform="translate(35,252)"/>
<path d="M0 0 C4.74107498 3.25102284 7.20870403 7.10632366 10 12 C9.01 12.33 8.02 12.66 7 13 C5.82157218 11.59310148 4.65762602 10.17406375 3.5 8.75 C2.8503125 7.96109375 2.200625 7.1721875 1.53125 6.359375 C0 4 0 4 0 0 Z " fill="#8CBC52" transform="translate(429,152)"/>
<path d="M0 0 C0.33 0 0.66 0 1 0 C1.3853211 10.83180428 1.3853211 10.83180428 -1 16 C-1.66 16.33 -2.32 16.66 -3 17 C-2.48517081 11.147205 -1.54642808 5.6702363 0 0 Z " fill="#7CB147" transform="translate(456,250)"/>
<path d="M0 0 C0.671875 1.796875 0.671875 1.796875 1 4 C-0.109375 5.703125 -0.109375 5.703125 -1.75 7.25 C-2.54664063 8.03117188 -2.54664063 8.03117188 -3.359375 8.828125 C-5 10 -5 10 -8 10 C-8.33 9.01 -8.66 8.02 -9 7 C-7.88625 6.38125 -7.88625 6.38125 -6.75 5.75 C-4.09828315 4.06254382 -2.13325986 2.29127911 0 0 Z " fill="#7CA84D" transform="translate(212,175)"/>
<path d="M0 0 C-0.33 0.66 -0.66 1.32 -1 2 C-4.92773752 3.14170067 -8.74578979 3.10357788 -12.8125 3.0625 C-13.97394531 3.05347656 -15.13539063 3.04445313 -16.33203125 3.03515625 C-17.21246094 3.02355469 -18.09289062 3.01195312 -19 3 C-19 2.67 -19 2.34 -19 2 C-12.53205867 0.48766299 -6.64409958 -0.21432579 0 0 Z " fill="#80B74D" transform="translate(195,423)"/>
<path d="M0 0 C0.33 0.99 0.66 1.98 1 3 C-0.74122549 4.03572896 -2.49336595 5.0531252 -4.25 6.0625 C-5.71179688 6.91521484 -5.71179688 6.91521484 -7.203125 7.78515625 C-10 9 -10 9 -14 8 C-9.38 5.36 -4.76 2.72 0 0 Z " fill="#83BA4D" transform="translate(368,370)"/>
<path d="M0 0 C0.33 0 0.66 0 1 0 C1.09765625 6.15234375 1.09765625 6.15234375 1 8 C0.67 8.33 0.34 8.66 0 9 C-0.23653523 11.52596259 -0.42173692 14.03107207 -0.5625 16.5625 C-0.60568359 17.27341797 -0.64886719 17.98433594 -0.69335938 18.71679688 C-0.79971777 20.47761912 -0.90038846 22.2387832 -1 24 C-1.33 24 -1.66 24 -2 24 C-2.05425013 21.12474331 -2.09379277 18.25052354 -2.125 15.375 C-2.14175781 14.56675781 -2.15851563 13.75851563 -2.17578125 12.92578125 C-2.21420986 8.19906185 -1.82737094 4.44612298 0 0 Z " fill="#3A3C38" transform="translate(176,198)"/>
<path d="M0 0 C0.66 0 1.32 0 2 0 C2.69821417 2.10063576 3.38324472 4.20565737 4.0625 6.3125 C4.44535156 7.48425781 4.82820313 8.65601563 5.22265625 9.86328125 C6 13 6 13 5 16 C4.67 15.01 4.34 14.02 4 13 C3.34 12.67 2.68 12.34 2 12 C1.3671875 9.27734375 1.3671875 9.27734375 0.875 5.9375 C0.70742188 4.83277344 0.53984375 3.72804687 0.3671875 2.58984375 C0.24601562 1.73519531 0.12484375 0.88054687 0 0 Z " fill="#656465" transform="translate(29,239)"/>
<path d="M0 0 C5.75 0.75 5.75 0.75 8 3 C6.08654673 3.53251766 4.1690705 4.05059483 2.25 4.5625 C1.18265625 4.85253906 0.1153125 5.14257812 -0.984375 5.44140625 C-3.84335927 5.97098494 -5.31597383 5.98370862 -8 5 C-4.535 4.505 -4.535 4.505 -1 4 C-0.67 2.68 -0.34 1.36 0 0 Z " fill="#3D3D3D" transform="translate(198,38)"/>
<path d="M0 0 C1.65 0 3.3 0 5 0 C3.6581656 4.02550319 1.5772427 4.88285636 -2 7 C-2.66 7 -3.32 7 -4 7 C-3.6875 5.0625 -3.6875 5.0625 -3 3 C-2.01 2.67 -1.02 2.34 0 2 C0 1.34 0 0.68 0 0 Z " fill="#73A94B" transform="translate(128,425)"/>
<path d="M0 0 C0.33 0.66 0.66 1.32 1 2 C1.99 2.33 2.98 2.66 4 3 C2.06767179 3.86580287 0.12892806 4.71729941 -1.8125 5.5625 C-2.89144531 6.03816406 -3.97039062 6.51382813 -5.08203125 7.00390625 C-8 8 -8 8 -11 7 C-8.35261084 5.5393715 -7.10551666 5 -4 5 C-4 3.68 -4 2.36 -4 1 C-2.68 0.67 -1.36 0.34 0 0 Z " fill="#404040" transform="translate(151,53)"/>
<path d="M0 0 C2.14336161 3.4766338 2.21277626 6.21229195 2.125 10.25 C2.10695313 11.32765625 2.08890625 12.4053125 2.0703125 13.515625 C2.03550781 14.74539062 2.03550781 14.74539062 2 16 C1.34 16 0.68 16 0 16 C-0.91397824 10.31302429 -0.91397824 5.68697571 0 0 Z " fill="#626160" transform="translate(25,201)"/>
<path d="M0 0 C0.66 0.33 1.32 0.66 2 1 C-0.55959603 3.98619537 -3.3940848 5.48551562 -7 7 C-9.875 7.1875 -9.875 7.1875 -12 7 C-8.44008172 4.03340143 -4.34777457 1.618652 0 0 Z " fill="#4B4C47" transform="translate(274,112)"/>
<path d="M0 0 C-0.66 0 -1.32 0 -2 0 C-2 0.66 -2 1.32 -2 2 C-5.31070838 3.00109515 -8.30084769 3.10356134 -11.75 3.0625 C-12.73484375 3.05347656 -13.7196875 3.04445313 -14.734375 3.03515625 C-15.48203125 3.02355469 -16.2296875 3.01195312 -17 3 C-17 2.67 -17 2.34 -17 2 C-14.91952703 1.4678559 -12.83547707 0.94968214 -10.75 0.4375 C-9.58984375 0.14746094 -8.4296875 -0.14257812 -7.234375 -0.44140625 C-4.27909017 -0.95179964 -2.75565899 -1.02996165 0 0 Z " fill="#454542" transform="translate(183,328)"/>
<path d="M0 0 C1.07156762 4.28627048 1.0365854 4.66075382 -0.9375 8.25 C-1.31777344 8.95640625 -1.69804687 9.6628125 -2.08984375 10.390625 C-2.39019531 10.92171875 -2.69054687 11.4528125 -3 12 C-3.99 12 -4.98 12 -6 12 C-4.02 8.04 -2.04 4.08 0 0 Z " fill="#444542" transform="translate(182,184)"/>
<path d="M0 0 C1.22589844 0.01353516 1.22589844 0.01353516 2.4765625 0.02734375 C3.41628906 0.04474609 3.41628906 0.04474609 4.375 0.0625 C4.045 1.0525 3.715 2.0425 3.375 3.0625 C0.075 3.0625 -3.225 3.0625 -6.625 3.0625 C-6.625 2.4025 -6.625 1.7425 -6.625 1.0625 C-4.21954362 -0.14022819 -2.67503047 -0.03821472 0 0 Z " fill="#8ABC37" transform="translate(342.625,113.9375)"/>
<path d="M0 0 C0 0.66 0 1.32 0 2 C-2.12136362 2.55573751 -4.24725521 3.09421768 -6.375 3.625 C-7.55835938 3.92664062 -8.74171875 4.22828125 -9.9609375 4.5390625 C-10.96382812 4.69117188 -11.96671875 4.84328125 -13 5 C-13.66 4.34 -14.32 3.68 -15 3 C-9.89665983 1.094753 -5.53657294 -0.42589023 0 0 Z " fill="#6E6D6D" transform="translate(197,40)"/>
<path d="M0 0 C0.66 0.33 1.32 0.66 2 1 C-0.31 3.64 -2.62 6.28 -5 9 C-5.66 8.67 -6.32 8.34 -7 8 C-6.67 6.35 -6.34 4.7 -6 3 C-5.38125 2.87625 -4.7625 2.7525 -4.125 2.625 C-1.80879168 2.12802644 -1.80879168 2.12802644 0 0 Z " fill="#7DAE3D" transform="translate(260,314)"/>
<path d="M0 0 C0.99 0.33 1.98 0.66 3 1 C4.20568053 5.67201205 4.09382426 10.21496292 4 15 C2.1866078 11.79989612 1.47786026 8.86716157 0.875 5.25 C0.70742188 4.26515625 0.53984375 3.2803125 0.3671875 2.265625 C0.24601562 1.51796875 0.12484375 0.7703125 0 0 Z " fill="#7AAB48" transform="translate(453,199)"/>
<path d="M0 0 C4.24846075 0.47205119 6.26819288 2.88877522 9 6 C9 6.66 9 7.32 9 8 C8.01 8.33 7.02 8.66 6 9 C5.67 7.68 5.34 6.36 5 5 C4.34 5 3.68 5 3 5 C1.375 3.625 1.375 3.625 0 2 C0 1.34 0 0.68 0 0 Z " fill="#71A840" transform="translate(293,162)"/>
<path d="M0 0 C0.99 0.66 1.98 1.32 3 2 C2.2575 2.5775 1.515 3.155 0.75 3.75 C-1.66087643 5.72253526 -3.84042701 7.76044282 -6 10 C-6 6.36672806 -5.04413589 4.95264073 -3 2 C-2.01 1.34 -1.02 0.68 0 0 Z " fill="#7CBA3E" transform="translate(217,354)"/>
<path d="M0 0 C2.475 0.495 2.475 0.495 5 1 C5.66 3.31 6.32 5.62 7 8 C6.34 8 5.68 8 5 8 C4.67 8.66 4.34 9.32 4 10 C2.68 6.7 1.36 3.4 0 0 Z " fill="#6EAD41" transform="translate(195,226)"/>
<path d="M0 0 C0 0.66 0 1.32 0 2 C-1.65 2.33 -3.3 2.66 -5 3 C-5 3.66 -5 4.32 -5 5 C-6.98 5 -8.96 5 -11 5 C-11 4.34 -11 3.68 -11 3 C-9.73160474 2.49384702 -8.46016898 1.99530901 -7.1875 1.5 C-6.12595703 1.08234375 -6.12595703 1.08234375 -5.04296875 0.65625 C-3 0 -3 0 0 0 Z " fill="#5D5D5D" transform="translate(163,50)"/>
<path d="M0 0 C0.33 1.32 0.66 2.64 1 4 C-1.31 5.32 -3.62 6.64 -6 8 C-6 6.68 -6 5.36 -6 4 C-3 1.75 -3 1.75 0 0 Z " fill="#7DAF3F" transform="translate(140,417)"/>
<path d="M0 0 C-2.03819846 2.03819846 -3.29417798 2.67841059 -5.9375 3.6875 C-6.62714844 3.95949219 -7.31679687 4.23148437 -8.02734375 4.51171875 C-10 5 -10 5 -13 4 C-12 2 -12 2 -9.3125 0.875 C-6.0420565 0.01110926 -3.36293818 -0.16013991 0 0 Z " fill="#505F4E" transform="translate(194,324)"/>
<path d="M0 0 C0.99 0.33 1.98 0.66 3 1 C3.94921875 3.28515625 3.94921875 3.28515625 4.6875 6.0625 C4.93886719 6.98160156 5.19023438 7.90070313 5.44921875 8.84765625 C5.63097656 9.55792969 5.81273437 10.26820313 6 11 C5.34 11 4.68 11 4 11 C2.35 7.7 0.7 4.4 -1 1 C-0.67 0.67 -0.34 0.34 0 0 Z " fill="#616161" transform="translate(44,273)"/>
<path d="M0 0 C1.6045556 0.14148989 3.20863767 0.28835686 4.8125 0.4375 C5.70582031 0.51871094 6.59914063 0.59992187 7.51953125 0.68359375 C10 1 10 1 13 2 C13.33 1.34 13.66 0.68 14 0 C15.32 1.65 16.64 3.3 18 5 C11.9490696 3.83445193 5.96533774 2.54656904 0 1 C0 0.67 0 0.34 0 0 Z " fill="#3B3A3B" transform="translate(340,33)"/>
<path d="M0 0 C0.99 0.33 1.98 0.66 3 1 C2 4 2 4 -0.875 5.6875 C-4 7 -4 7 -7 7 C-4.66666667 4.66666667 -2.33333333 2.33333333 0 0 Z " fill="#7EAC47" transform="translate(411,338)"/>
<path d="M0 0 C0.66 0 1.32 0 2 0 C3.60355101 3.50776784 4.22036864 6.14354879 4 10 C3.01 9.67 2.02 9.34 1 9 C0.234375 7.1875 0.234375 7.1875 -0.25 5 C-0.42015625 4.278125 -0.5903125 3.55625 -0.765625 2.8125 C-0.84296875 2.214375 -0.9203125 1.61625 -1 1 C-0.67 0.67 -0.34 0.34 0 0 Z " fill="#606061" transform="translate(27,228)"/>
<path d="M0 0 C0.625 1.8125 0.625 1.8125 1 4 C0.01 5.485 0.01 5.485 -1 7 C-1.66 7 -2.32 7 -3 7 C-3.33 8.65 -3.66 10.3 -4 12 C-4.66 12 -5.32 12 -6 12 C-4.68139111 7.38486888 -2.78644563 3.90102388 0 0 Z " fill="#5B5B5C" transform="translate(48,132)"/>
<path d="M0 0 C0.99 0.33 1.98 0.66 3 1 C1.35 2.98 -0.3 4.96 -2 7 C-3.32 6.67 -4.64 6.34 -6 6 C-5.34 6 -4.68 6 -4 6 C-3.71125 5.38125 -3.4225 4.7625 -3.125 4.125 C-2 2 -2 2 0 0 Z " fill="#6DAD43" transform="translate(290,128)"/>
<path d="M0 0 C2.64 0.33 5.28 0.66 8 1 C8.33 1.99 8.66 2.98 9 4 C6.36 3.67 3.72 3.34 1 3 C0.67 2.01 0.34 1.02 0 0 Z " fill="#82B84F" transform="translate(365,117)"/>
<path d="M0 0 C0.33 0.66 0.66 1.32 1 2 C1.66 2.33 2.32 2.66 3 3 C0.69 5.31 -1.62 7.62 -4 10 C-4.66 9.67 -5.32 9.34 -6 9 C-4.02 6.03 -2.04 3.06 0 0 Z " fill="#3F3F3F" transform="translate(81,94)"/>
<path d="M0 0 C1.36511719 0.43119141 1.36511719 0.43119141 2.7578125 0.87109375 C3.45648438 1.09925781 4.15515625 1.32742187 4.875 1.5625 C4.875 2.2225 4.875 2.8825 4.875 3.5625 C-1.065 2.5725 -1.065 2.5725 -7.125 1.5625 C-7.125 0.9025 -7.125 0.2425 -7.125 -0.4375 C-4.30685434 -1.84657283 -2.95222796 -0.94622691 0 0 Z " fill="#5E5E5E" transform="translate(348.125,31.4375)"/>
<path d="M0 0 C2.5625 2.25 2.5625 2.25 5 5 C4.8125 7.3125 4.8125 7.3125 4 9 C2.68 8.34 1.36 7.68 0 7 C0 4.66666667 0 2.33333333 0 0 Z " fill="#76A93E" transform="translate(303,171)"/>
<path d="M0 0 C0.66 0.99 1.32 1.98 2 3 C0.1875 6 0.1875 6 -2 9 C-2.99 9 -3.98 9 -5 9 C-3.7508258 5.54074837 -2.32472205 2.85306797 0 0 Z " fill="#3E3F3C" transform="translate(189,173)"/>
<path d="M0 0 C0.99 0.33 1.98 0.66 3 1 C0.42215154 3.64752004 -1.91648098 5.94432065 -5 8 C-5 5 -5 5 -2.5 2.3125 C-1.675 1.549375 -0.85 0.78625 0 0 Z " fill="#424238" transform="translate(201,160)"/>
<path d="M0 0 C1.32 0.33 2.64 0.66 4 1 C-0.455 3.97 -0.455 3.97 -5 7 C-5 6.01 -5 5.02 -5 4 C-2.75 1.75 -2.75 1.75 0 0 Z " fill="#464647" transform="translate(100,82)"/>
<path d="M0 0 C0.99 0 1.98 0 3 0 C1.52307692 4.67692308 1.52307692 4.67692308 -1.125 6.3125 C-2.053125 6.6528125 -2.053125 6.6528125 -3 7 C-2.38722388 4.03824877 -1.74627478 2.61941217 0 0 Z " fill="#7FB447" transform="translate(293,270)"/>
<path d="M0 0 C0.66 0 1.32 0 2 0 C0.74194623 4.50802601 -0.90407165 7.4912812 -4 11 C-4.33 9.35 -4.66 7.7 -5 6 C-3.68 5.67 -2.36 5.34 -1 5 C-0.67 3.35 -0.34 1.7 0 0 Z " fill="#3C3C3C" transform="translate(45,139)"/>
<path d="M0 0 C0.66 0.33 1.32 0.66 2 1 C-0.72478774 4.36591427 -4.06856792 5.44226276 -8 7 C-6.88424427 3.65273281 -6.48655378 3.37920252 -3.5625 1.75 C-2.386875 1.1725 -1.21125 0.595 0 0 Z " fill="#4B4B48" transform="translate(257,121)"/>
<path d="M0 0 C0.99 0.33 1.98 0.66 3 1 C3 1.99 3 2.98 3 4 C0 6 0 6 -3 6 C-2 4 -1 2 0 0 Z " fill="#89B64C" transform="translate(237,334)"/>
<path d="M0 0 C0.33 0.99 0.66 1.98 1 3 C-0.98 4.98 -2.96 6.96 -5 9 C-5.66 8.67 -6.32 8.34 -7 8 C-4.69 5.36 -2.38 2.72 0 0 Z " fill="#81B947" transform="translate(420,328)"/>
<path d="M0 0 C-1 2 -1 2 -3.25 3.125 C-6.01613295 4.00513321 -8.12048351 4.1645438 -11 4 C-3.77464789 -1.88732394 -3.77464789 -1.88732394 0 0 Z " fill="#666767" transform="translate(148,56)"/>
<path d="M0 0 C0.99 0.33 1.98 0.66 3 1 C1.63016497 4.16115776 1.0109362 4.9927092 -2 7 C-2 6.34 -2 5.68 -2 5 C-2.66 4.67 -3.32 4.34 -4 4 C-2.68 2.68 -1.36 1.36 0 0 Z " fill="#6DAD39" transform="translate(265,306)"/>
<path d="M0 0 C4.08718695 -0.24042276 7.17679443 0.57741188 11 2 C11 2.33 11 2.66 11 3 C7.7 3 4.4 3 1 3 C0.67 2.01 0.34 1.02 0 0 Z " fill="#74A43F" transform="translate(323,115)"/>
<path d="M0 0 C0.33 0.66 0.66 1.32 1 2 C5.455 1.505 5.455 1.505 10 1 C6.3750203 2.81248985 4.62740416 3.31888915 0.75 3.625 C-0.14203125 3.69976562 -1.0340625 3.77453125 -1.953125 3.8515625 C-2.62859375 3.90054688 -3.3040625 3.94953125 -4 4 C-2.68 2.68 -1.36 1.36 0 0 Z " fill="#39393A" transform="translate(211,36)"/>
<path d="M0 0 C0 0.66 0 1.32 0 2 C-4.455 2.495 -4.455 2.495 -9 3 C-9 2.34 -9 1.68 -9 1 C-5.57367167 -0.61798838 -3.61944899 -1.34053666 0 0 Z " fill="#585859" transform="translate(221,35)"/>
<path d="M0 0 C0 0.33 0 0.66 0 1 C-1.43534841 1.2226746 -2.87345525 1.42761906 -4.3125 1.625 C-5.11300781 1.74101562 -5.91351563 1.85703125 -6.73828125 1.9765625 C-9 2 -9 2 -12 0 C-7.66726186 -0.92844389 -4.33273814 -0.92844389 0 0 Z " fill="#8BBE53" transform="translate(255,413)"/>
<path d="M0 0 C0.66 0.33 1.32 0.66 2 1 C0.35 2.98 -1.3 4.96 -3 7 C-3.66 6.67 -4.32 6.34 -5 6 C-3.63016497 2.83884224 -3.0109362 2.0072908 0 0 Z " fill="#7DB346" transform="translate(274,298)"/>
<path d="M0 0 C0.99 0 1.98 0 3 0 C2.3125 1.9375 2.3125 1.9375 1 4 C-1.625 4.75 -1.625 4.75 -4 5 C-2.1875 2.5 -2.1875 2.5 0 0 Z " fill="#88B943" transform="translate(283,285)"/>
<path d="M0 0 C2.0625 2.3125 2.0625 2.3125 4 5 C3.67 5.99 3.34 6.98 3 8 C2.34 8 1.68 8 1 8 C-0.35439668 5.29120665 -0.06501451 2.99066732 0 0 Z " fill="#454545" transform="translate(41,266)"/>
<path d="M0 0 C1.45606519 4.52092968 0.27032841 7.51648796 -1 12 C-1.33 12 -1.66 12 -2 12 C-1.979375 10.906875 -1.95875 9.81375 -1.9375 8.6875 C-1.81455548 5.05615809 -1.81455548 5.05615809 -3 2 C-2.01 2 -1.02 2 0 2 C0 1.34 0 0.68 0 0 Z " fill="#3A3A4A" transform="translate(32,172)"/>
<path d="M0 0 C5.53846154 -0.36923077 5.53846154 -0.36923077 7.875 1.5 C8.24625 1.995 8.6175 2.49 9 3 C5.25 4.125 5.25 4.125 3 3 C1.9805881 2.01979625 0.97753644 1.02196992 0 0 Z " fill="#6F6F6F" transform="translate(93,320)"/>
<path d="M0 0 C0.99 0.66 1.98 1.32 3 2 C1.02 3.32 -0.96 4.64 -3 6 C-3.66 5.67 -4.32 5.34 -5 5 C-3.35 3.35 -1.7 1.7 0 0 Z " fill="#585A56" transform="translate(201,317)"/>
<path d="M0 0 C2.4375 0.8125 2.4375 0.8125 5 2 C5.33 2.99 5.66 3.98 6 5 C5.01 5.33 4.02 5.66 3 6 C0 2.25 0 2.25 0 0 Z " fill="#6DB834" transform="translate(280,187)"/>
<path d="M0 0 C0 0.66 0 1.32 0 2 C-4.15267176 5.11450382 -4.15267176 5.11450382 -7.3125 4.6875 C-7.869375 4.460625 -8.42625 4.23375 -9 4 C-2.25 0 -2.25 0 0 0 Z " fill="#6A6A6A" transform="translate(125,66)"/>
<path d="M0 0 C-1.485 1.98 -1.485 1.98 -3 4 C-4.98 3.34 -6.96 2.68 -9 2 C-5.86501708 0.14223235 -3.62528568 -0.20140476 0 0 Z " fill="#666666" transform="translate(211,37)"/>
<path d="M0 0 C0.66 0.33 1.32 0.66 2 1 C0.95125002 3.62187494 0.35068687 4.79371361 -2.125 6.25 C-2.74375 6.4975 -3.3625 6.745 -4 7 C-3.39816251 4.97954558 -2.72693904 2.97888961 -2 1 C-1.34 0.67 -0.68 0.34 0 0 Z " fill="#78B941" transform="translate(188,379)"/>
<path d="M0 0 C0 3.10551666 -0.5393715 4.35261084 -2 7 C-2.99 7 -3.98 7 -5 7 C-3.70700306 4.11562221 -2.34058637 2.12780579 0 0 Z " fill="#93C35D" transform="translate(223,348)"/>
<path d="M0 0 C0.99 0 1.98 0 3 0 C2.34 1.98 1.68 3.96 1 6 C0.34 6 -0.32 6 -1 6 C-0.67 4.02 -0.34 2.04 0 0 Z " fill="#86BF43" transform="translate(308,240)"/>
<path d="M0 0 C0.99 0.66 1.98 1.32 3 2 C1.03533587 3.06775224 -0.96855359 4.06553465 -3 5 C-3.66 4.67 -4.32 4.34 -5 4 C-3 1 -3 1 0 0 Z " fill="#5A5E57" transform="translate(313,93)"/>
<path d="M0 0 C3 1 3 1 3 1 Z " fill="#555500" transform="translate(177,428)"/>
<path d="" fill="#000000" transform="translate(0,0)"/>
<path d="M0 0 C0.99 0.495 0.99 0.495 2 1 C1.01 1.495 1.01 1.495 0 2 C0 1.34 0 0.68 0 0 Z " fill="#555555" transform="translate(418,51)"/>
<path d="M0 0 C0.99 0.495 0.99 0.495 2 1 C1.01 1.495 1.01 1.495 0 2 C0 1.34 0 0.68 0 0 Z " fill="#555555" transform="translate(418,19)"/>
<path d="M0 0 C2 1 2 1 2 1 Z " fill="#404040" transform="translate(467,425)"/>
<path d="M0 0 C2 1 2 1 2 1 Z " fill="#007F00" transform="translate(265,412)"/>
<path d="M0 0 C2 1 2 1 2 1 Z " fill="#007F00" transform="translate(418,403)"/>
<path d="M0 0 C2 1 2 1 2 1 Z " fill="#404040" transform="translate(418,363)"/>
<path d="" fill="#007F00" transform="translate(0,0)"/>
<path d="M0 0 C2 1 2 1 2 1 Z " fill="#7F7F7F" transform="translate(119,331)"/>
<path d="" fill="#000000" transform="translate(0,0)"/>
<path d="M0 0 C2 1 2 1 2 1 Z " fill="#404040" transform="translate(197,247)"/>
<path d="M0 0 C2 1 2 1 2 1 Z " fill="#004000" transform="translate(300,107)"/>
<path d="M0 0 C2 1 2 1 2 1 Z " fill="#000000" transform="translate(126,62)"/>
<path d="" fill="#000000" transform="translate(0,0)"/>
<path d="M0 0 C2 1 2 1 2 1 Z " fill="#000000" transform="translate(418,43)"/>
<path d="" fill="#000000" transform="translate(0,0)"/>
<path d="" fill="#000000" transform="translate(0,0)"/>
<path d="" fill="#000000" transform="translate(0,0)"/>
<path d="" fill="#FFFFFF" transform="translate(0,0)"/>
<path d="" fill="#000000" transform="translate(0,0)"/>
<path d="" fill="#FFFFFF" transform="translate(0,0)"/>
<path d="" fill="#000000" transform="translate(0,0)"/>
<path d="" fill="#000000" transform="translate(0,0)"/>
<path d="" fill="#000000" transform="translate(0,0)"/>
<path d="" fill="#000000" transform="translate(0,0)"/>
<path d="" fill="#00FF00" transform="translate(0,0)"/>
<path d="" fill="#FFFFFF" transform="translate(0,0)"/>
<path d="" fill="#000000" transform="translate(0,0)"/>
<path d="" fill="#000000" transform="translate(0,0)"/>
<path d="" fill="#000000" transform="translate(0,0)"/>
<path d="" fill="#000000" transform="translate(0,0)"/>
<path d="" fill="#FFFFFF" transform="translate(0,0)"/>
<path d="" fill="#000000" transform="translate(0,0)"/>
<path d="" fill="#000000" transform="translate(0,0)"/>
<path d="" fill="#FFFFFF" transform="translate(0,0)"/>
<path d="" fill="#000000" transform="translate(0,0)"/>
<path d="" fill="#FFFFFF" transform="translate(0,0)"/>
<path d="" fill="#000000" transform="translate(0,0)"/>
<path d="" fill="#FFFFFF" transform="translate(0,0)"/>
<path d="" fill="#000000" transform="translate(0,0)"/>
<path d="" fill="#000000" transform="translate(0,0)"/>
<path d="" fill="#000000" transform="translate(0,0)"/>
<path d="" fill="#000000" transform="translate(0,0)"/>
<path d="" fill="#000000" transform="translate(0,0)"/>
<path d="" fill="#000000" transform="translate(0,0)"/>
<path d="" fill="#FFFFFF" transform="translate(0,0)"/>
<path d="" fill="#FFFFFF" transform="translate(0,0)"/>
<path d="" fill="#FFFFFF" transform="translate(0,0)"/>
<path d="" fill="#FFFFFF" transform="translate(0,0)"/>
<path d="" fill="#000000" transform="translate(0,0)"/>
<path d="" fill="#000000" transform="translate(0,0)"/>
<path d="" fill="#000000" transform="translate(0,0)"/>
<path d="" fill="#000000" transform="translate(0,0)"/>
<path d="" fill="#000000" transform="translate(0,0)"/>
<path d="" fill="#000000" transform="translate(0,0)"/>
<path d="" fill="#000000" transform="translate(0,0)"/>
<path d="" fill="#000000" transform="translate(0,0)"/>
<path d="" fill="#FFFFFF" transform="translate(0,0)"/>
<path d="" fill="#000000" transform="translate(0,0)"/>
<path d="" fill="#000000" transform="translate(0,0)"/>
<path d="" fill="#FFFFFF" transform="translate(0,0)"/>
<path d="" fill="#000000" transform="translate(0,0)"/>
<path d="" fill="#000000" transform="translate(0,0)"/>
<path d="" fill="#000000" transform="translate(0,0)"/>
<path d="" fill="#000000" transform="translate(0,0)"/>
<path d="" fill="#000000" transform="translate(0,0)"/>
<path d="" fill="#000000" transform="translate(0,0)"/>
<path d="" fill="#000000" transform="translate(0,0)"/>
<path d="" fill="#000000" transform="translate(0,0)"/>
<path d="" fill="#000000" transform="translate(0,0)"/>
<path d="" fill="#000000" transform="translate(0,0)"/>
<path d="" fill="#000000" transform="translate(0,0)"/>
<path d="" fill="#000000" transform="translate(0,0)"/>
<path d="" fill="#000000" transform="translate(0,0)"/>
<path d="" fill="#000000" transform="translate(0,0)"/>
<path d="" fill="#FFFFFF" transform="translate(0,0)"/>
<path d="" fill="#000000" transform="translate(0,0)"/>
<path d="" fill="#000000" transform="translate(0,0)"/>
<path d="" fill="#000000" transform="translate(0,0)"/>
<path d="" fill="#000000" transform="translate(0,0)"/>
<path d="" fill="#000000" transform="translate(0,0)"/>
<path d="" fill="#000000" transform="translate(0,0)"/>
<path d="" fill="#000000" transform="translate(0,0)"/>
<path d="" fill="#FFFFFF" transform="translate(0,0)"/>
<path d="" fill="#00FF00" transform="translate(0,0)"/>
<path d="" fill="#000000" transform="translate(0,0)"/>
<path d="" fill="#000000" transform="translate(0,0)"/>
<path d="" fill="#000000" transform="translate(0,0)"/>
<path d="" fill="#000000" transform="translate(0,0)"/>
<path d="" fill="#000000" transform="translate(0,0)"/>
<path d="" fill="#000000" transform="translate(0,0)"/>
<path d="" fill="#000000" transform="translate(0,0)"/>
<path d="" fill="#000000" transform="translate(0,0)"/>
<path d="" fill="#000000" transform="translate(0,0)"/>
<path d="" fill="#000000" transform="translate(0,0)"/>
<path d="" fill="#000000" transform="translate(0,0)"/>
<path d="" fill="#000000" transform="translate(0,0)"/>
<path d="" fill="#000000" transform="translate(0,0)"/>
<path d="" fill="#000000" transform="translate(0,0)"/>
<path d="" fill="#000000" transform="translate(0,0)"/>
<path d="" fill="#000000" transform="translate(0,0)"/>
<path d="" fill="#000000" transform="translate(0,0)"/>
<path d="" fill="#000000" transform="translate(0,0)"/>
<path d="" fill="#000000" transform="translate(0,0)"/>
<path d="" fill="#000000" transform="translate(0,0)"/>
<path d="" fill="#000000" transform="translate(0,0)"/>
<path d="" fill="#FFFF00" transform="translate(0,0)"/>
<path d="" fill="#000000" transform="translate(0,0)"/>
<path d="" fill="#000000" transform="translate(0,0)"/>
<path d="" fill="#000000" transform="translate(0,0)"/>
<path d="" fill="#000000" transform="translate(0,0)"/>
<path d="" fill="#000000" transform="translate(0,0)"/>
<path d="" fill="#000000" transform="translate(0,0)"/>
<path d="" fill="#000000" transform="translate(0,0)"/>
<path d="" fill="#000000" transform="translate(0,0)"/>
<path d="" fill="#FFFFFF" transform="translate(0,0)"/>
<path d="" fill="#000000" transform="translate(0,0)"/>
<path d="" fill="#000000" transform="translate(0,0)"/>
<path d="" fill="#000000" transform="translate(0,0)"/>
<path d="" fill="#000000" transform="translate(0,0)"/>
<path d="" fill="#000000" transform="translate(0,0)"/>
<path d="" fill="#000000" transform="translate(0,0)"/>
<path d="" fill="#000000" transform="translate(0,0)"/>
<path d="" fill="#000000" transform="translate(0,0)"/>
<path d="" fill="#000000" transform="translate(0,0)"/>
<path d="" fill="#FFFF00" transform="translate(0,0)"/>
<path d="" fill="#000000" transform="translate(0,0)"/>
<path d="" fill="#000000" transform="translate(0,0)"/>
<path d="" fill="#000000" transform="translate(0,0)"/>
<path d="" fill="#00FF00" transform="translate(0,0)"/>
<path d="" fill="#000000" transform="translate(0,0)"/>
<path d="" fill="#000000" transform="translate(0,0)"/>
<path d="" fill="#000000" transform="translate(0,0)"/>
<path d="" fill="#000000" transform="translate(0,0)"/>
<path d="" fill="#000000" transform="translate(0,0)"/>
<path d="" fill="#000000" transform="translate(0,0)"/>
<path d="" fill="#000000" transform="translate(0,0)"/>
<path d="" fill="#000000" transform="translate(0,0)"/>
<path d="" fill="#000000" transform="translate(0,0)"/>
<path d="" fill="#000000" transform="translate(0,0)"/>
<path d="" fill="#FFFFFF" transform="translate(0,0)"/>
<path d="" fill="#000000" transform="translate(0,0)"/>
<path d="" fill="#000000" transform="translate(0,0)"/>
<path d="" fill="#000000" transform="translate(0,0)"/>
<path d="" fill="#FFFFFF" transform="translate(0,0)"/>
<path d="" fill="#000000" transform="translate(0,0)"/>
<path d="" fill="#000000" transform="translate(0,0)"/>
<path d="" fill="#000000" transform="translate(0,0)"/>
<path d="" fill="#000000" transform="translate(0,0)"/>
<path d="" fill="#FFFFFF" transform="translate(0,0)"/>
<path d="" fill="#FFFFFF" transform="translate(0,0)"/>
<path d="" fill="#000000" transform="translate(0,0)"/>
<path d="" fill="#000000" transform="translate(0,0)"/>
<path d="" fill="#000000" transform="translate(0,0)"/>
<path d="" fill="#000000" transform="translate(0,0)"/>
<path d="" fill="#FFFFFF" transform="translate(0,0)"/>
<path d="" fill="#000000" transform="translate(0,0)"/>
<path d="" fill="#000000" transform="translate(0,0)"/>
<path d="" fill="#000000" transform="translate(0,0)"/>
<path d="" fill="#000000" transform="translate(0,0)"/>
<path d="" fill="#000000" transform="translate(0,0)"/>
<path d="" fill="#FFFFFF" transform="translate(0,0)"/>
<path d="" fill="#000000" transform="translate(0,0)"/>
<path d="" fill="#000000" transform="translate(0,0)"/>
<path d="" fill="#000000" transform="translate(0,0)"/>
<path d="" fill="#FFFF00" transform="translate(0,0)"/>
<path d="" fill="#000000" transform="translate(0,0)"/>
<path d="" fill="#000000" transform="translate(0,0)"/>
<path d="" fill="#000000" transform="translate(0,0)"/>
<path d="" fill="#000000" transform="translate(0,0)"/>
<path d="" fill="#000000" transform="translate(0,0)"/>
<path d="" fill="#FFFFFF" transform="translate(0,0)"/>
<path d="" fill="#000000" transform="translate(0,0)"/>
<path d="" fill="#000000" transform="translate(0,0)"/>
<path d="" fill="#FFFFFF" transform="translate(0,0)"/>
<path d="" fill="#FFFFFF" transform="translate(0,0)"/>
<path d="" fill="#000000" transform="translate(0,0)"/>
<path d="" fill="#000000" transform="translate(0,0)"/>
<path d="" fill="#000000" transform="translate(0,0)"/>
<path d="" fill="#000000" transform="translate(0,0)"/>
<path d="" fill="#000000" transform="translate(0,0)"/>
<path d="" fill="#000000" transform="translate(0,0)"/>
<path d="" fill="#000000" transform="translate(0,0)"/>
<path d="" fill="#FFFFFF" transform="translate(0,0)"/>
<path d="" fill="#FFFFFF" transform="translate(0,0)"/>
<path d="" fill="#000000" transform="translate(0,0)"/>
<path d="" fill="#000000" transform="translate(0,0)"/>
<path d="" fill="#000000" transform="translate(0,0)"/>
<path d="" fill="#000000" transform="translate(0,0)"/>
<path d="" fill="#000000" transform="translate(0,0)"/>
<path d="" fill="#000000" transform="translate(0,0)"/>
<path d="" fill="#000000" transform="translate(0,0)"/>
<path d="" fill="#000000" transform="translate(0,0)"/>
<path d="" fill="#000000" transform="translate(0,0)"/>
<path d="" fill="#000000" transform="translate(0,0)"/>
<path d="" fill="#FFFFFF" transform="translate(0,0)"/>
<path d="" fill="#000000" transform="translate(0,0)"/>
<path d="" fill="#000000" transform="translate(0,0)"/>
<path d="" fill="#000000" transform="translate(0,0)"/>
<path d="" fill="#000000" transform="translate(0,0)"/>
<path d="" fill="#FFFFFF" transform="translate(0,0)"/>
<path d="" fill="#FFFFFF" transform="translate(0,0)"/>
</svg>
